{
  "accessors": [
    {
      "bufferView": 0,
      "componentType": 5125,
      "count": 2580,
      "type": "SCALAR"
    },
    {
      "bufferView": 1,
      "componentType": 5126,
      "count": 974,
      "max": [
        0.0799850821495056,
        0.27143132686615,
        1.21250605583191
      ],
      "min": [
        -0.0799850821495056,
        -0.196028545498848,
        -0.0909311175346375
      ],
      "type": "VEC3"
    },
    {
      "bufferView": 2,
      "componentType": 5126,
      "count": 974,
      "type": "VEC3"
    },
    {
      "bufferView": 3,
      "componentType": 5126,
      "count": 974,
      "type": "VEC4"
    },
    {
      "bufferView": 4,
      "componentType": 5126,
      "count": 974,
      "type": "VEC2"
    }
  ],
  "asset": {
    "generator": "Adobe Substance 3D Painter 11.0.0",
    "version": "2.0"
  },
  "bufferViews": [
    {
      "buffer": 0,
      "byteLength": 10320,
      "target": 34963
    },
    {
      "buffer": 0,
      "byteLength": 11688,
      "byteOffset": 10320,
      "target": 34962
    },
    {
      "buffer": 0,
      "byteLength": 11688,
      "byteOffset": 22008,
      "target": 34962
    },
    {
      "buffer": 0,
      "byteLength": 15584,
      "byteOffset": 33696,
      "target": 34962
    },
    {
      "buffer": 0,
      "byteLength": 7792,
      "byteOffset": 49280,
      "target": 34962
    }
  ],
  "buffers": [
    {
      "byteLength": 57072,
      "uri": "bazooka.bin"
    }
  ],
  "images": [
    {
      "uri": "1001_baseColor.png"
    },
    {
      "uri": "1001_occlusionRoughnessMetallic.png"
    },
    {
      "uri": "1001_normal.png"
    }
  ],
  "materials": [
    {
      "alphaMode": "OPAQUE",
      "name": "1001",
      "normalTexture": {
        "index": 2
      },
      "occlusionTexture": {
        "index": 1
      },
      "pbrMetallicRoughness": {
        "baseColorTexture": {
          "index": 0
        },
        "metallicRoughnessTexture": {
          "index": 1
        }
      }
    }
  ],
  "meshes": [
    {
      "name": "Cube.014",
      "primitives": [
        {
          "attributes": {
            "NORMAL": 2,
            "POSITION": 1,
            "TANGENT": 3,
            "TEXCOORD_0": 4
          },
          "indices": 0,
          "material": 0,
          "mode": 4
        }
      ]
    }
  ],
  "nodes": [
    {
      "children": [
        1
      ],
      "name": "bazooka"
    },
    {
      "mesh": 0,
      "name": "Cube.014"
    }
  ],
  "samplers": [
    {
      "magFilter": 9729,
      "minFilter": 9985,
      "wrapS": 10497,
      "wrapT": 10497
    }
  ],
  "scene": 0,
  "scenes": [
    {
      "name": "Scene",
      "nodes": [
        0
      ]
    }
  ],
  "textures": [
    {
      "sampler": 0,
      "source": 0
    },
    {
      "sampler": 0,
      "source": 1
    },
    {
      "sampler": 0,
      "source": 2
    }
  ]
}