{
  "accessors": [
    {
      "bufferView": 0,
      "componentType": 5125,
      "count": 7680,
      "type": "SCALAR"
    },
    {
      "bufferView": 1,
      "componentType": 5126,
      "count": 1958,
      "max": [
        2.42815589904785,
        8.01017475128174,
        1.45042860507965
      ],
      "min": [
        -2.53386378288269,
        -3.17343878746033,
        -1.36799561977386
      ],
      "type": "VEC3"
    },
    {
      "bufferView": 2,
      "componentType": 5126,
      "count": 1958,
      "type": "VEC3"
    },
    {
      "bufferView": 3,
      "componentType": 5126,
      "count": 1958,
      "type": "VEC4"
    },
    {
      "bufferView": 4,
      "componentType": 5126,
      "count": 1958,
      "type": "VEC2"
    },
    {
      "bufferView": 5,
      "componentType": 5125,
      "count": 456,
      "type": "SCALAR"
    },
    {
      "bufferView": 6,
      "componentType": 5126,
      "count": 232,
      "max": [
        1.43690550327301,
        4.36180877685547,
        0.46926549077034
      ],
      "min": [
        -1.43690550327301,
        2.65496230125427,
        -0.479474812746048
      ],
      "type": "VEC3"
    },
    {
      "bufferView": 7,
      "componentType": 5126,
      "count": 232,
      "type": "VEC3"
    },
    {
      "bufferView": 8,
      "componentType": 5126,
      "count": 232,
      "type": "VEC4"
    },
    {
      "bufferView": 9,
      "componentType": 5126,
      "count": 232,
      "type": "VEC2"
    },
    {
      "bufferView": 10,
      "componentType": 5125,
      "count": 408,
      "type": "SCALAR"
    },
    {
      "bufferView": 11,
      "componentType": 5126,
      "count": 198,
      "max": [
        3.55980825424194,
        7.9271936416626,
        0.398517787456512
      ],
      "min": [
        -3.66551637649536,
        7.45215606689453,
        -0.33099427819252
      ],
      "type": "VEC3"
    },
    {
      "bufferView": 12,
      "componentType": 5126,
      "count": 198,
      "type": "VEC3"
    },
    {
      "bufferView": 13,
      "componentType": 5126,
      "count": 198,
      "type": "VEC4"
    },
    {
      "bufferView": 14,
      "componentType": 5126,
      "count": 198,
      "type": "VEC2"
    },
    {
      "bufferView": 15,
      "componentType": 5125,
      "count": 264,
      "type": "SCALAR"
    },
    {
      "bufferView": 16,
      "componentType": 5126,
      "count": 160,
      "max": [
        1.4286288022995,
        7.81062412261963,
        0.298309147357941
      ],
      "min": [
        -1.4286288022995,
        7.33251762390137,
        -0.230521947145462
      ],
      "type": "VEC3"
    },
    {
      "bufferView": 17,
      "componentType": 5126,
      "count": 160,
      "type": "VEC3"
    },
    {
      "bufferView": 18,
      "componentType": 5126,
      "count": 160,
      "type": "VEC4"
    },
    {
      "bufferView": 19,
      "componentType": 5126,
      "count": 160,
      "type": "VEC2"
    },
    {
      "bufferView": 20,
      "componentType": 5125,
      "count": 216,
      "type": "SCALAR"
    },
    {
      "bufferView": 21,
      "componentType": 5126,
      "count": 106,
      "max": [
        0.769652485847473,
        7.51293468475342,
        1.06736886501312
      ],
      "min": [
        -0.769652545452118,
        6.68787288665771,
        -1.31077170372009
      ],
      "type": "VEC3"
    },
    {
      "bufferView": 22,
      "componentType": 5126,
      "count": 106,
      "type": "VEC3"
    },
    {
      "bufferView": 23,
      "componentType": 5126,
      "count": 106,
      "type": "VEC4"
    },
    {
      "bufferView": 24,
      "componentType": 5126,
      "count": 106,
      "type": "VEC2"
    },
    {
      "bufferView": 25,
      "componentType": 5125,
      "count": 96,
      "type": "SCALAR"
    },
    {
      "bufferView": 26,
      "componentType": 5126,
      "count": 50,
      "max": [
        0.299769282341003,
        6.44465208053589,
        0.460370391607285
      ],
      "min": [
        -0.299769371747971,
        5.76440858840942,
        -0.348569422960281
      ],
      "type": "VEC3"
    },
    {
      "bufferView": 27,
      "componentType": 5126,
      "count": 50,
      "type": "VEC3"
    },
    {
      "bufferView": 28,
      "componentType": 5126,
      "count": 50,
      "type": "VEC4"
    },
    {
      "bufferView": 29,
      "componentType": 5126,
      "count": 50,
      "type": "VEC2"
    },
    {
      "bufferView": 30,
      "componentType": 5125,
      "count": 324,
      "type": "SCALAR"
    },
    {
      "bufferView": 31,
      "componentType": 5126,
      "count": 136,
      "max": [
        6.40722227096558,
        7.94811153411865,
        0.446899503469467
      ],
      "min": [
        -6.42336463928223,
        7.40161800384521,
        -0.224281162023544
      ],
      "type": "VEC3"
    },
    {
      "bufferView": 32,
      "componentType": 5126,
      "count": 136,
      "type": "VEC3"
    },
    {
      "bufferView": 33,
      "componentType": 5126,
      "count": 136,
      "type": "VEC4"
    },
    {
      "bufferView": 34,
      "componentType": 5126,
      "count": 136,
      "type": "VEC2"
    },
    {
      "bufferView": 35,
      "componentType": 5125,
      "count": 4098,
      "type": "SCALAR"
    },
    {
      "bufferView": 36,
      "componentType": 5126,
      "count": 1808,
      "max": [
        4.45054006576538,
        9.68542289733887,
        2.43639016151428
      ],
      "min": [
        -4.51379823684692,
        -1.66198706626892,
        -1.60331666469574
      ],
      "type": "VEC3"
    },
    {
      "bufferView": 37,
      "componentType": 5126,
      "count": 1808,
      "type": "VEC3"
    },
    {
      "bufferView": 38,
      "componentType": 5126,
      "count": 1808,
      "type": "VEC4"
    },
    {
      "bufferView": 39,
      "componentType": 5126,
      "count": 1808,
      "type": "VEC2"
    },
    {
      "bufferView": 40,
      "componentType": 5125,
      "count": 1776,
      "type": "SCALAR"
    },
    {
      "bufferView": 41,
      "componentType": 5126,
      "count": 720,
      "max": [
        1.27907645702362,
        5.47688674926758,
        0.487697333097458
      ],
      "min": [
        -1.27907645702362,
        -2.00645756721497,
        -0.640806913375854
      ],
      "type": "VEC3"
    },
    {
      "bufferView": 42,
      "componentType": 5126,
      "count": 720,
      "type": "VEC3"
    },
    {
      "bufferView": 43,
      "componentType": 5126,
      "count": 720,
      "type": "VEC4"
    },
    {
      "bufferView": 44,
      "componentType": 5126,
      "count": 720,
      "type": "VEC2"
    }
  ],
  "asset": {
    "generator": "Adobe Substance 3D Painter 11.0.0",
    "version": "2.0"
  },
  "bufferViews": [
    {
      "buffer": 0,
      "byteLength": 30720,
      "target": 34963
    },
    {
      "buffer": 0,
      "byteLength": 23496,
      "byteOffset": 30720,
      "target": 34962
    },
    {
      "buffer": 0,
      "byteLength": 23496,
      "byteOffset": 54216,
      "target": 34962
    },
    {
      "buffer": 0,
      "byteLength": 31328,
      "byteOffset": 77712,
      "target": 34962
    },
    {
      "buffer": 0,
      "byteLength": 15664,
      "byteOffset": 109040,
      "target": 34962
    },
    {
      "buffer": 0,
      "byteLength": 1824,
      "byteOffset": 124704,
      "target": 34963
    },
    {
      "buffer": 0,
      "byteLength": 2784,
      "byteOffset": 126528,
      "target": 34962
    },
    {
      "buffer": 0,
      "byteLength": 2784,
      "byteOffset": 129312,
      "target": 34962
    },
    {
      "buffer": 0,
      "byteLength": 3712,
      "byteOffset": 132096,
      "target": 34962
    },
    {
      "buffer": 0,
      "byteLength": 1856,
      "byteOffset": 135808,
      "target": 34962
    },
    {
      "buffer": 0,
      "byteLength": 1632,
      "byteOffset": 137664,
      "target": 34963
    },
    {
      "buffer": 0,
      "byteLength": 2376,
      "byteOffset": 139296,
      "target": 34962
    },
    {
      "buffer": 0,
      "byteLength": 2376,
      "byteOffset": 141672,
      "target": 34962
    },
    {
      "buffer": 0,
      "byteLength": 3168,
      "byteOffset": 144048,
      "target": 34962
    },
    {
      "buffer": 0,
      "byteLength": 1584,
      "byteOffset": 147216,
      "target": 34962
    },
    {
      "buffer": 0,
      "byteLength": 1056,
      "byteOffset": 148800,
      "target": 34963
    },
    {
      "buffer": 0,
      "byteLength": 1920,
      "byteOffset": 149856,
      "target": 34962
    },
    {
      "buffer": 0,
      "byteLength": 1920,
      "byteOffset": 151776,
      "target": 34962
    },
    {
      "buffer": 0,
      "byteLength": 2560,
      "byteOffset": 153696,
      "target": 34962
    },
    {
      "buffer": 0,
      "byteLength": 1280,
      "byteOffset": 156256,
      "target": 34962
    },
    {
      "buffer": 0,
      "byteLength": 864,
      "byteOffset": 157536,
      "target": 34963
    },
    {
      "buffer": 0,
      "byteLength": 1272,
      "byteOffset": 158400,
      "target": 34962
    },
    {
      "buffer": 0,
      "byteLength": 1272,
      "byteOffset": 159672,
      "target": 34962
    },
    {
      "buffer": 0,
      "byteLength": 1696,
      "byteOffset": 160944,
      "target": 34962
    },
    {
      "buffer": 0,
      "byteLength": 848,
      "byteOffset": 162640,
      "target": 34962
    },
    {
      "buffer": 0,
      "byteLength": 384,
      "byteOffset": 163488,
      "target": 34963
    },
    {
      "buffer": 0,
      "byteLength": 600,
      "byteOffset": 163872,
      "target": 34962
    },
    {
      "buffer": 0,
      "byteLength": 600,
      "byteOffset": 164472,
      "target": 34962
    },
    {
      "buffer": 0,
      "byteLength": 800,
      "byteOffset": 165072,
      "target": 34962
    },
    {
      "buffer": 0,
      "byteLength": 400,
      "byteOffset": 165872,
      "target": 34962
    },
    {
      "buffer": 0,
      "byteLength": 1296,
      "byteOffset": 166272,
      "target": 34963
    },
    {
      "buffer": 0,
      "byteLength": 1632,
      "byteOffset": 167568,
      "target": 34962
    },
    {
      "buffer": 0,
      "byteLength": 1632,
      "byteOffset": 169200,
      "target": 34962
    },
    {
      "buffer": 0,
      "byteLength": 2176,
      "byteOffset": 170832,
      "target": 34962
    },
    {
      "buffer": 0,
      "byteLength": 1088,
      "byteOffset": 173008,
      "target": 34962
    },
    {
      "buffer": 0,
      "byteLength": 16392,
      "byteOffset": 174096,
      "target": 34963
    },
    {
      "buffer": 0,
      "byteLength": 21696,
      "byteOffset": 190488,
      "target": 34962
    },
    {
      "buffer": 0,
      "byteLength": 21696,
      "byteOffset": 212184,
      "target": 34962
    },
    {
      "buffer": 0,
      "byteLength": 28928,
      "byteOffset": 233880,
      "target": 34962
    },
    {
      "buffer": 0,
      "byteLength": 14464,
      "byteOffset": 262808,
      "target": 34962
    },
    {
      "buffer": 0,
      "byteLength": 7104,
      "byteOffset": 277272,
      "target": 34963
    },
    {
      "buffer": 0,
      "byteLength": 8640,
      "byteOffset": 284376,
      "target": 34962
    },
    {
      "buffer": 0,
      "byteLength": 8640,
      "byteOffset": 293016,
      "target": 34962
    },
    {
      "buffer": 0,
      "byteLength": 11520,
      "byteOffset": 301656,
      "target": 34962
    },
    {
      "buffer": 0,
      "byteLength": 5760,
      "byteOffset": 313176,
      "target": 34962
    }
  ],
  "buffers": [
    {
      "byteLength": 318936,
      "uri": "stormcellplayer.bin"
    }
  ],
  "images": [
    {
      "uri": "1001_baseColor.png"
    },
    {
      "uri": "1001_occlusionRoughnessMetallic.png"
    },
    {
      "uri": "1001_normal.png"
    }
  ],
  "materials": [
    {
      "alphaMode": "OPAQUE",
      "name": "1001",
      "normalTexture": {
        "index": 2
      },
      "occlusionTexture": {
        "index": 1
      },
      "pbrMetallicRoughness": {
        "baseColorTexture": {
          "index": 0
        },
        "metallicRoughnessTexture": {
          "index": 1
        }
      }
    }
  ],
  "meshes": [
    {
      "name": "Cube.035-0",
      "primitives": [
        {
          "attributes": {
            "NORMAL": 2,
            "POSITION": 1,
            "TANGENT": 3,
            "TEXCOORD_0": 4
          },
          "indices": 0,
          "material": 0,
          "mode": 4
        }
      ]
    },
    {
      "name": "Cube.035-1",
      "primitives": [
        {
          "attributes": {
            "NORMAL": 7,
            "POSITION": 6,
            "TANGENT": 8,
            "TEXCOORD_0": 9
          },
          "indices": 5,
          "material": 0,
          "mode": 4
        }
      ]
    },
    {
      "name": "Cube.035-2",
      "primitives": [
        {
          "attributes": {
            "NORMAL": 12,
            "POSITION": 11,
            "TANGENT": 13,
            "TEXCOORD_0": 14
          },
          "indices": 10,
          "material": 0,
          "mode": 4
        }
      ]
    },
    {
      "name": "Cube.035-3",
      "primitives": [
        {
          "attributes": {
            "NORMAL": 17,
            "POSITION": 16,
            "TANGENT": 18,
            "TEXCOORD_0": 19
          },
          "indices": 15,
          "material": 0,
          "mode": 4
        }
      ]
    },
    {
      "name": "Cube.035-4",
      "primitives": [
        {
          "attributes": {
            "NORMAL": 22,
            "POSITION": 21,
            "TANGENT": 23,
            "TEXCOORD_0": 24
          },
          "indices": 20,
          "material": 0,
          "mode": 4
        }
      ]
    },
    {
      "name": "Cube.035-5",
      "primitives": [
        {
          "attributes": {
            "NORMAL": 27,
            "POSITION": 26,
            "TANGENT": 28,
            "TEXCOORD_0": 29
          },
          "indices": 25,
          "material": 0,
          "mode": 4
        }
      ]
    },
    {
      "name": "Cube.035-6",
      "primitives": [
        {
          "attributes": {
            "NORMAL": 32,
            "POSITION": 31,
            "TANGENT": 33,
            "TEXCOORD_0": 34
          },
          "indices": 30,
          "material": 0,
          "mode": 4
        }
      ]
    },
    {
      "name": "Cube.035-7",
      "primitives": [
        {
          "attributes": {
            "NORMAL": 37,
            "POSITION": 36,
            "TANGENT": 38,
            "TEXCOORD_0": 39
          },
          "indices": 35,
          "material": 0,
          "mode": 4
        }
      ]
    },
    {
      "name": "Cube.035-8",
      "primitives": [
        {
          "attributes": {
            "NORMAL": 42,
            "POSITION": 41,
            "TANGENT": 43,
            "TEXCOORD_0": 44
          },
          "indices": 40,
          "material": 0,
          "mode": 4
        }
      ]
    }
  ],
  "nodes": [
    {
      "children": [
        1,
        11
      ],
      "name": "Armature"
    },
    {
      "children": [
        2,
        3,
        4,
        5,
        6,
        7,
        8,
        9,
        10
      ],
      "name": "Cube.035"
    },
    {
      "mesh": 0,
      "name": "Cube.035-0"
    },
    {
      "mesh": 1,
      "name": "Cube.035-1"
    },
    {
      "mesh": 2,
      "name": "Cube.035-2"
    },
    {
      "mesh": 3,
      "name": "Cube.035-3"
    },
    {
      "mesh": 4,
      "name": "Cube.035-4"
    },
    {
      "mesh": 5,
      "name": "Cube.035-5"
    },
    {
      "mesh": 6,
      "name": "Cube.035-6"
    },
    {
      "mesh": 7,
      "name": "Cube.035-7"
    },
    {
      "mesh": 8,
      "name": "Cube.035-8"
    },
    {
      "children": [
        12,
        15,
        20
      ],
      "name": "waist",
      "rotation": [
        0.70710688829422,
        1.25607373369199e-15,
        -0.707106649875641,
        -4.21468406841541e-08
      ],
      "scale": [
        0.99999988079071,
        0.999999821186066,
        0.999999821186066
      ],
      "translation": [
        0.0,
        6.31364154815674,
        0.00386587204411626
      ]
    },
    {
      "children": [
        13
      ],
      "name": "waistbranch.l",
      "rotation": [
        0.707106709480286,
        -2.66925450631561e-08,
        2.66925397340856e-08,
        0.707106828689575
      ],
      "scale": [
        1.0,
        0.999999940395355,
        0.999999940395355
      ],
      "translation": [
        -2.3283064365387e-10,
        0.565585613250732,
        0.0
      ]
    },
    {
      "children": [
        14
      ],
      "name": "thigh.l",
      "rotation": [
        -0.706372797489166,
        -0.0322103425860405,
        -0.0322102271020412,
        0.706372797489166
      ],
      "scale": [
        1.00000011920929,
        1.0,
        1.00000011920929
      ],
      "translation": [
        -2.3280069538778e-10,
        1.04028487205505,
        4.76837129781416e-07
      ]
    },
    {
      "name": "leg.l",
      "rotation": [
        3.40238459628495e-09,
        1.21160368848905e-07,
        0.061492495238781,
        0.998107552528381
      ],
      "scale": [
        1.0,
        0.999999940395355,
        1.0
      ],
      "translation": [
        -2.53678962280901e-08,
        1.24718821048737,
        2.73201941070056e-08
      ]
    },
    {
      "children": [
        16,
        18
      ],
      "name": "core",
      "rotation": [
        -0.70710676908493,
        1.02943293661917e-22,
        0.70710676908493,
        1.49735707903918e-22
      ],
      "scale": [
        0.999999940395355,
        0.99999988079071,
        0.999999940395355
      ],
      "translation": [
        -0.0208288263529539,
        -0.488941669464111,
        -1.57253277066616e-09
      ]
    },
    {
      "children": [
        17
      ],
      "name": "shoulder.l",
      "rotation": [
        -1.54543116082095e-08,
        3.7930764307248e-08,
        0.707106828689575,
        0.707106709480286
      ],
      "scale": [
        0.999999940395355,
        0.999999940395355,
        1.0
      ],
      "translation": [
        1.32348898008484e-23,
        0.900132179260254,
        1.86264514923096e-09
      ]
    },
    {
      "name": "arm.l",
      "rotation": [
        1.77635747467496e-15,
        1.4210854715202e-14,
        2.57257840560551e-22,
        1.0
      ],
      "translation": [
        -1.86439752525303e-09,
        1.5123598575592,
        2.25629115391257e-09
      ]
    },
    {
      "children": [
        19
      ],
      "name": "shoulder.r",
      "rotation": [
        -3.79307572018206e-08,
        -1.54543151609232e-08,
        -0.707106649875641,
        0.70710688829422
      ],
      "scale": [
        0.999999940395355,
        0.999999940395355,
        1.0
      ],
      "translation": [
        1.32348898008484e-23,
        0.900132179260254,
        1.86264514923096e-09
      ]
    },
    {
      "name": "arm.r",
      "rotation": [
        -1.77635747467496e-15,
        -1.4210854715202e-14,
        1.91083404178083e-22,
        1.0
      ],
      "translation": [
        1.86439752525303e-09,
        1.5123598575592,
        2.2563373391904e-09
      ]
    },
    {
      "children": [
        21
      ],
      "name": "waistbranch.r",
      "rotation": [
        0.0,
        -0.70710676908493,
        0.70710676908493,
        -5.33850794681712e-08
      ],
      "scale": [
        0.99999988079071,
        0.999999940395355,
        0.999999940395355
      ],
      "translation": [
        -2.3283064365387e-10,
        0.565585613250732,
        0.0
      ]
    },
    {
      "children": [
        22
      ],
      "name": "thigh.r",
      "rotation": [
        -0.706372916698456,
        0.032210361212492,
        0.0322102606296539,
        0.706372678279877
      ],
      "scale": [
        0.999999940395355,
        1.0,
        1.0
      ],
      "translation": [
        2.02753078215601e-10,
        1.04028487205505,
        4.76545295668984e-07
      ]
    },
    {
      "name": "leg.r",
      "rotation": [
        2.02231342782966e-09,
        -1.09475045917407e-07,
        -0.061492495238781,
        0.998107552528381
      ],
      "scale": [
        1.0,
        0.999999940395355,
        1.0
      ],
      "translation": [
        7.69666002042868e-08,
        1.24718844890594,
        4.50375807758974e-08
      ]
    }
  ],
  "samplers": [
    {
      "magFilter": 9729,
      "minFilter": 9985,
      "wrapS": 10497,
      "wrapT": 10497
    }
  ],
  "scene": 0,
  "scenes": [
    {
      "name": "Scene",
      "nodes": [
        0
      ]
    }
  ],
  "textures": [
    {
      "sampler": 0,
      "source": 0
    },
    {
      "sampler": 0,
      "source": 1
    },
    {
      "sampler": 0,
      "source": 2
    }
  ]
}